# xmcd
#
# Track frame offsets: 
#        150
#        67345
#        88910
#        122300
#        145233
#        173038
#        188090
#        204973
#        273885
#        299125
#
# Disc length: 4307 seconds
#
# Revision: 0
# Processed by: cddbd v1.5.2PL0 Copyright (c) Steve Scherf et al.
# Submitted via: ExactAudioCopyFreeDBPlugin 1.0
#
DISCID=9910d10a
DTITLE=The Why Store - Live at Midnight CD1
DYEAR=2000
DGENRE=Blues
TTITLE0=Let You In 
TTITLE1=Everybody 
TTITLE2=Tell Ya Why 
TTITLE3=What Do You Know 
TTITLE4=Weeping 
TTITLE5=Good To Me 
TTITLE6=Surround Me 
TTITLE7=Fade Away - Still Inside Of You
TTITLE8=Lack Of Water
TTITLE9=Father 
EXTD=
EXTT0=
EXTT1=
EXTT2=
EXTT3=
EXTT4=
EXTT5=
EXTT6=
EXTT7=
EXTT8=
EXTT9=
PLAYORDER=
